<svg xmlns="http://www.w3.org/2000/svg">
<symbol id="convert" viewBox="0 0 22 19">
<path d="M20.75 0.90625H1.25C0.835156 0.90625 0.5 1.25537 0.5 1.6875V17.3125C0.5 17.7446 0.835156 18.0938 1.25 18.0938H20.75C21.1648 18.0938 21.5 17.7446 21.5 17.3125V1.6875C21.5 1.25537 21.1648 0.90625 20.75 0.90625ZM18.8563 3.56494L11.4617 9.55859C11.2789 9.70752 11.0234 9.70752 10.8406 9.55859L3.44375 3.56494C3.41587 3.54253 3.39541 3.51158 3.38526 3.47645C3.37511 3.44132 3.37576 3.40376 3.38713 3.36904C3.3985 3.33431 3.42002 3.30416 3.44867 3.28282C3.47731 3.26147 3.51165 3.24999 3.54688 3.25H18.7531C18.7883 3.24999 18.8227 3.26147 18.8513 3.28282C18.88 3.30416 18.9015 3.33431 18.9129 3.36904C18.9242 3.40376 18.9249 3.44132 18.9147 3.47645C18.9046 3.51158 18.8841 3.54253 18.8563 3.56494Z" />
</symbol>
<symbol id="linkedin" viewBox="0 0 38 38">
<path fill-rule="evenodd" clip-rule="evenodd" d="M0.666422 3.73009C0.666422 2.91764 0.989165 2.13847 1.56365 1.56398C2.13814 0.989495 2.91731 0.666752 3.72976 0.666752H34.2664C34.669 0.666095 35.0678 0.744857 35.44 0.89853C35.8121 1.0522 36.1503 1.27777 36.4352 1.56231C36.72 1.84686 36.946 2.18479 37.1 2.55677C37.2541 2.92875 37.3333 3.32746 37.3331 3.73009V34.2668C37.3335 34.6695 37.2546 35.0683 37.1007 35.4405C36.9468 35.8126 36.7211 36.1508 36.4364 36.4356C36.1518 36.7204 35.8137 36.9463 35.4417 37.1004C35.0696 37.2545 34.6708 37.3336 34.2681 37.3334H3.72976C3.32733 37.3334 2.92885 37.2541 2.55708 37.1001C2.18531 36.946 1.84754 36.7202 1.56306 36.4356C1.27858 36.151 1.05298 35.8131 0.899126 35.4412C0.745277 35.0694 0.666203 34.6708 0.666422 34.2684V3.73009ZM15.1798 14.6468H20.1448V17.1401C20.8614 15.7068 22.6948 14.4168 25.4498 14.4168C30.7314 14.4168 31.9831 17.2718 31.9831 22.5101V32.2134H26.6381V23.7034C26.6381 20.7201 25.9214 19.0368 24.1014 19.0368C21.5764 19.0368 20.5264 20.8518 20.5264 23.7034V32.2134H15.1798V14.6468ZM6.01309 31.9851H11.3598V14.4168H6.01309V31.9834V31.9851ZM12.1248 8.68675C12.1348 9.14454 12.0534 9.59973 11.8852 10.0256C11.7169 10.4515 11.4653 10.8395 11.1451 11.1668C10.8249 11.4941 10.4426 11.7542 10.0205 11.9318C9.59844 12.1093 9.14515 12.2008 8.68725 12.2008C8.22936 12.2008 7.77607 12.1093 7.354 11.9318C6.93192 11.7542 6.54957 11.4941 6.22937 11.1668C5.90917 10.8395 5.65758 10.4515 5.48936 10.0256C5.32113 9.59973 5.23967 9.14454 5.24975 8.68675C5.26954 7.78818 5.6404 6.93307 6.2829 6.30456C6.9254 5.67605 7.78846 5.32412 8.68725 5.32412C9.58605 5.32412 10.4491 5.67605 11.0916 6.30456C11.7341 6.93307 12.105 7.78818 12.1248 8.68675Z" />
</symbol>
<symbol id="facebook" viewBox="0 0 37 37">
<path d="M35.2032 0H1.4668C0.655476 0 0 0.655476 0 1.4668V35.2032C0 36.0145 0.655476 36.67 1.4668 36.67H35.2032C36.0145 36.67 36.67 36.0145 36.67 35.2032V1.4668C36.67 0.655476 36.0145 0 35.2032 0ZM30.9678 10.7031H28.0388C25.7423 10.7031 25.2977 11.794 25.2977 13.3983V16.9324H30.7799L30.0648 22.465H25.2977V36.67H19.5818V22.4695H14.8009V16.9324H19.5818V12.8528C19.5818 8.11782 22.4741 5.53717 26.7003 5.53717C28.7264 5.53717 30.4636 5.68843 30.9724 5.75719V10.7031H30.9678Z" /> 
</symbol>
<symbol id="insta" viewBox="0 0 37 37">
<path d="M18.3301 12.2205C14.9634 12.2205 12.2159 14.968 12.2159 18.3347C12.2159 21.7013 14.9634 24.4488 18.3301 24.4488C21.6968 24.4488 24.4442 21.7013 24.4442 18.3347C24.4442 14.968 21.6968 12.2205 18.3301 12.2205ZM36.6679 18.3347C36.6679 15.8028 36.6909 13.2938 36.5487 10.7665C36.4065 7.83097 35.7368 5.22569 33.5902 3.07908C31.439 0.92789 28.8383 0.26281 25.9028 0.12062C23.3709 -0.0215696 20.862 0.00136431 18.3347 0.00136431C15.8028 0.00136431 13.2938 -0.0215696 10.7665 0.12062C7.83097 0.26281 5.22569 0.932477 3.07908 3.07908C0.92789 5.23027 0.26281 7.83097 0.12062 10.7665C-0.0215696 13.2984 0.00136431 15.8073 0.00136431 18.3347C0.00136431 20.862 -0.0215696 23.3755 0.12062 25.9028C0.26281 28.8383 0.932477 31.4436 3.07908 33.5902C5.23027 35.7414 7.83097 36.4065 10.7665 36.5487C13.2984 36.6909 15.8073 36.6679 18.3347 36.6679C20.8665 36.6679 23.3755 36.6909 25.9028 36.5487C28.8383 36.4065 31.4436 35.7368 33.5902 33.5902C35.7414 31.439 36.4065 28.8383 36.5487 25.9028C36.6955 23.3755 36.6679 20.8665 36.6679 18.3347ZM18.3301 27.7421C13.1241 27.7421 8.92262 23.5406 8.92262 18.3347C8.92262 13.1287 13.1241 8.9272 18.3301 8.9272C23.536 8.9272 27.7375 13.1287 27.7375 18.3347C27.7375 23.5406 23.536 27.7421 18.3301 27.7421ZM28.1228 10.739C26.9073 10.739 25.9258 9.75741 25.9258 8.54192C25.9258 7.32642 26.9073 6.34486 28.1228 6.34486C29.3383 6.34486 30.3199 7.32642 30.3199 8.54192C30.3202 8.83054 30.2637 9.1164 30.1534 9.38312C30.0431 9.64985 29.8813 9.89219 29.6772 10.0963C29.4731 10.3004 29.2307 10.4622 28.964 10.5725C28.6973 10.6828 28.4114 10.7393 28.1228 10.739Z" />
</symbol>
<symbol id="phone" viewBox="0 0 18 18">
<path d="M10 4.99999C12.103 4.99999 13 5.89699 13 7.99999H15C15 4.77499 13.225 2.99999 10 2.99999V4.99999ZM13.422 10.443C13.2299 10.2683 12.9774 10.1752 12.7178 10.1832C12.4583 10.1912 12.212 10.2998 12.031 10.486L9.63801 12.947C9.06201 12.837 7.90401 12.476 6.71201 11.287C5.52001 10.094 5.15901 8.93299 5.05201 8.361L7.51101 5.96699C7.69742 5.78612 7.80614 5.53982 7.81417 5.2802C7.82219 5.02059 7.72889 4.76804 7.55401 4.57599L3.85901 0.512995C3.68405 0.320352 3.44089 0.203499 3.18116 0.187255C2.92143 0.17101 2.66561 0.256653 2.46801 0.425995L0.298008 2.28699C0.125119 2.46051 0.0219269 2.69145 0.0080073 2.93599C-0.0069927 3.18599 -0.292993 9.108 4.29901 13.702C8.30501 17.707 13.323 18 14.705 18C14.907 18 15.031 17.994 15.064 17.992C15.3085 17.9783 15.5393 17.8747 15.712 17.701L17.572 15.53C17.7415 15.3325 17.8273 15.0768 17.8112 14.817C17.7952 14.5573 17.6785 14.3141 17.486 14.139L13.422 10.443Z" />
</symbol>
</svg>
